<svg xmlns="http://www.w3.org/2000/svg" viewBox="0 0 512 512" role="img" aria-labelledby="title desc">
  <title id="title">Sleep Cycle App Icon</title>
  <desc id="desc">A sun and crescent moon together on a blended morning and night background.</desc>
  <defs>
    <linearGradient id="sky" x1="0" x2="1" y1="0" y2="1">
      <stop offset="0" stop-color="#fff176" />
      <stop offset="0.38" stop-color="#fb923c" />
      <stop offset="0.7" stop-color="#7c3aed" />
      <stop offset="1" stop-color="#111827" />
    </linearGradient>
    <filter id="softShadow" x="-30%" y="-30%" width="160%" height="160%">
      <feDropShadow dx="0" dy="18" stdDeviation="18" flood-color="#111827" flood-opacity="0.25" />
    </filter>
  </defs>
  <rect width="512" height="512" rx="108" fill="url(#sky)" />
  <circle cx="177" cy="216" r="82" fill="#fde047" filter="url(#softShadow)" />
  <g fill="none" stroke="#fff7ad" stroke-linecap="round" stroke-width="24">
    <path d="M177 70v46" />
    <path d="M177 316v46" />
    <path d="M31 216h46" />
    <path d="M277 216h46" />
    <path d="M74 113l32 32" />
    <path d="M248 287l32 32" />
    <path d="M74 319l32-32" />
    <path d="M248 145l32-32" />
  </g>
  <path
    d="M389 118c-46 18-78 63-78 115 0 68 55 123 123 123 17 0 33-3 48-10-20 47-67 80-121 80-73 0-132-59-132-132 0-82 74-147 160-176z"
    fill="#f8fafc"
    filter="url(#softShadow)"
  />
  <circle cx="359" cy="166" r="8" fill="#fde68a" />
  <circle cx="434" cy="221" r="6" fill="#fde68a" />
  <circle cx="385" cy="324" r="7" fill="#fde68a" />
</svg>
